<?xml version="1.0" encoding="UTF-8" standalone="no"?>
<!-- Uploaded to: SVG Repo, www.svgrepo.com, Generator: SVG Repo Mixer Tools -->

<svg
   fill="#000000"
   width="826.59998"
   height="825.04999"
   viewBox="0 0 33.063999 33.002"
   version="1.1"
   id="svg1"
   sodipodi:docname="globe-svgrepo-com.svg"
   inkscape:version="1.4.2 (ebf0e940d0, 2025-05-08)"
   xmlns:inkscape="http://www.inkscape.org/namespaces/inkscape"
   xmlns:sodipodi="http://sodipodi.sourceforge.net/DTD/sodipodi-0.dtd"
   xmlns="http://www.w3.org/2000/svg"
   xmlns:svg="http://www.w3.org/2000/svg">
  <defs
     id="defs1" />
  <sodipodi:namedview
     id="namedview1"
     pagecolor="#ffffff"
     bordercolor="#000000"
     borderopacity="0.25"
     inkscape:showpageshadow="2"
     inkscape:pageopacity="0.0"
     inkscape:pagecheckerboard="0"
     inkscape:deskcolor="#d1d1d1"
     inkscape:zoom="0.73875"
     inkscape:cx="285.6176"
     inkscape:cy="506.26058"
     inkscape:window-width="2560"
     inkscape:window-height="1371"
     inkscape:window-x="0"
     inkscape:window-y="0"
     inkscape:window-maximized="1"
     inkscape:current-layer="svg1" />
  <path
     d="M 32.564,16.501 C 32.564,8 25.887,1.029 17.492,0.532 17.319,0.513 17.146,0.5 16.969,0.5 16.917,0.5 16.865,0.505 16.813,0.507 16.72,0.505 16.627,0.5 16.532,0.5 7.692,0.5 0.5,7.678 0.5,16.501 c 0,8.823 7.192,16.001 16.032,16.001 0.094,0 0.188,-0.006 0.281,-0.008 0.052,0.002 0.104,0.008 0.156,0.008 0.176,0 0.349,-0.012 0.523,-0.032 8.395,-0.497 15.072,-7.468 15.072,-15.969 z m -2.983,5.151 c -0.551,-0.16 -1.935,-0.507 -4.377,-0.794 0.202,-1.381 0.313,-2.84 0.313,-4.357 0,-1.196 -0.069,-2.354 -0.197,-3.469 3.094,-0.37 4.45,-0.835 4.54,-0.867 l -0.372,-1.05 c 0.695,1.659 1.08,3.478 1.08,5.386 0,1.818 -0.352,3.555 -0.987,5.151 z M 9.453,16.501 c 0,-1.119 0.074,-2.212 0.21,-3.263 1.621,0.127 3.561,0.222 5.839,0.243 V 20.42 C 13.283,20.441 11.388,20.531 9.793,20.654 9.573,19.335 9.453,17.939 9.453,16.5 Z M 17.499,2.633 c 2.452,0.711 4.552,4.115 5.492,8.628 -1.512,0.12 -3.332,0.209 -5.492,0.229 z m -1.996,0.024 v 8.832 c -2.136,-0.021 -3.965,-0.109 -5.502,-0.226 0.96,-4.457 3.076,-7.836 5.502,-8.606 z m 0,19.757 v 7.929 c -2.263,-0.718 -4.256,-3.705 -5.293,-7.719 1.492,-0.11 3.253,-0.189 5.292,-0.21 z m 1.996,7.955 v -7.955 c 2.061,0.02 3.814,0.102 5.288,0.217 -1.019,4.067 -3,7.076 -5.288,7.738 z m 0,-9.948 v -6.939 c 2.291,-0.021 4.218,-0.118 5.818,-0.25 0.131,1.053 0.203,2.147 0.203,3.268 0,1.442 -0.116,2.84 -0.329,4.16 -1.575,-0.128 -3.462,-0.219 -5.692,-0.24 z M 29.12,10.311 c -0.302,0.094 -1.564,0.453 -4.094,0.751 -0.564,-2.998 -1.584,-5.561 -2.91,-7.412 3.048,1.325 5.535,3.697 7.005,6.661 z M 11.745,3.332 C 10.113,5.205 8.782,7.9 8.054,11.086 5.789,10.841 4.431,10.552 3.888,10.421 5.473,7.151 8.295,4.585 11.744,3.333 Z m -8.599,8.956 c 0.385,0.104 1.841,0.467 4.549,0.766 -0.155,1.107 -0.24,2.26 -0.24,3.447 0,1.509 0.136,2.96 0.383,4.334 C 5.513,21.086 4.083,21.387 3.442,21.541 2.835,19.975 2.498,18.277 2.498,16.5 c 0,-1.467 0.228,-2.883 0.649,-4.213 z m 1.17,11.099 c 0.727,-0.154 2.029,-0.39 3.956,-0.591 0.759,2.803 1.993,5.175 3.473,6.874 -3.16,-1.148 -5.79,-3.398 -7.429,-6.282 v 0 z m 17.799,5.963 c 1.195,-1.665 2.14,-3.907 2.728,-6.525 1.982,0.227 3.226,0.494 3.853,0.652 -1.5,2.596 -3.808,4.669 -6.581,5.873 z"
     id="path1"
     style="stroke:#000000;stroke-opacity:1" />
</svg>
